<svg width="44" height="44" viewBox="0 0 44 44" fill="none" xmlns="http://www.w3.org/2000/svg">
<g clip-path="url(#clip0_5989_66786)">
<path opacity="0.996" fill-rule="evenodd" clip-rule="evenodd" d="M19.9805 -0.0429688C21.2981 -0.0429688 22.6159 -0.0429688 23.9336 -0.0429688C31.6374 0.89271 37.4382 4.70261 41.3359 11.3867C42.7707 14.0913 43.6443 16.9558 43.957 19.9805C43.957 21.2981 43.957 22.6159 43.957 23.9336C43.9284 23.9336 43.8997 23.9336 43.8711 23.9336C43.8851 23.731 43.8708 23.5305 43.8281 23.332C41.82 21.2803 39.8005 19.3037 37.7695 17.4023C37.4582 16.9352 37.0285 16.6058 36.4805 16.4141C35.7936 16.3711 35.1061 16.3568 34.418 16.3711C32.8711 14.7669 31.2956 13.1914 29.6914 11.6445C29.3801 11.0901 28.9217 10.7034 28.3164 10.4844C24.8218 10.4414 21.3269 10.4271 17.832 10.4414C14.3657 10.4271 10.8996 10.4414 7.43359 10.4844C6.76801 10.7202 6.29535 11.1642 6.01562 11.8164C5.95833 16.6003 5.95833 21.3841 6.01562 26.168C6.13706 26.4396 6.28029 26.6974 6.44531 26.9414C6.68045 27.1349 6.92394 27.3068 7.17578 27.457C12.5151 32.9255 17.9291 38.3825 23.418 43.8281C23.5875 43.8707 23.7594 43.885 23.9336 43.8711C23.9336 43.8997 23.9336 43.9284 23.9336 43.957C22.6159 43.957 21.2981 43.957 19.9805 43.957C12.2767 43.0213 6.47592 39.2115 2.57812 32.5273C1.14342 29.8228 0.269723 26.9583 -0.0429688 23.9336C-0.0429688 22.6159 -0.0429688 21.2981 -0.0429688 19.9805C0.892676 12.2768 4.70257 6.47602 11.3867 2.57812C14.0913 1.14342 16.9558 0.269723 19.9805 -0.0429688Z" fill="#FEB54B"/>
<path fill-rule="evenodd" clip-rule="evenodd" d="M17.832 10.4409C17.832 12.4175 17.832 14.3941 17.832 16.3706C17.0867 16.3564 16.3419 16.3706 15.5977 16.4136C14.4362 16.8593 13.9492 17.7043 14.1367 18.9487C14.1367 20.1805 14.1367 21.4123 14.1367 22.6441C14.1367 24.2769 14.1367 25.9097 14.1367 27.5425C11.8126 27.5696 9.49231 27.541 7.17578 27.4566C6.92394 27.3063 6.68045 27.1345 6.44531 26.9409C6.28029 26.697 6.13707 26.4391 6.01563 26.1675C5.95833 21.3836 5.95833 16.5998 6.01563 11.8159C6.29535 11.1638 6.76801 10.7197 7.4336 10.4839C10.8996 10.4409 14.3657 10.4266 17.832 10.4409Z" fill="#A6D02B"/>
<path fill-rule="evenodd" clip-rule="evenodd" d="M17.832 10.4409C21.3269 10.4266 24.8218 10.4409 28.3164 10.4839C28.9217 10.703 29.3801 11.0897 29.6914 11.6441C29.774 13.2166 29.8026 14.7921 29.7773 16.3706C28.5456 16.3706 27.3138 16.3706 26.082 16.3706C23.332 16.3706 20.582 16.3706 17.832 16.3706C17.832 14.3941 17.832 12.4175 17.832 10.4409Z" fill="#80A413"/>
<path fill-rule="evenodd" clip-rule="evenodd" d="M29.6914 11.6445C31.2956 13.1914 32.8711 14.7669 34.418 16.3711C32.8711 16.3711 31.3242 16.3711 29.7773 16.3711C29.8026 14.7926 29.774 13.2171 29.6914 11.6445Z" fill="#FE9D00"/>
<path fill-rule="evenodd" clip-rule="evenodd" d="M17.8321 16.3706C20.5821 16.3706 23.3321 16.3706 26.0821 16.3706C26.0821 17.23 26.0821 18.0893 26.0821 18.9487C22.1003 18.9487 18.1185 18.9487 14.1368 18.9487C13.9492 17.7042 14.4362 16.8592 15.5977 16.4136C16.3419 16.3706 17.0867 16.3563 17.8321 16.3706Z" fill="#C874F3"/>
<path fill-rule="evenodd" clip-rule="evenodd" d="M26.082 16.3706C27.3138 16.3706 28.5456 16.3706 29.7773 16.3706C31.3242 16.3706 32.8711 16.3706 34.418 16.3706C35.1061 16.3563 35.7936 16.3706 36.4805 16.4136C37.0285 16.6053 37.4582 16.9347 37.7695 17.4018C37.9241 17.9016 37.9814 18.4173 37.9414 18.9487C33.9883 18.9487 30.0352 18.9487 26.082 18.9487C26.082 18.0893 26.082 17.23 26.082 16.3706Z" fill="#A04CD8"/>
<path fill-rule="evenodd" clip-rule="evenodd" d="M43.8711 23.9336C43.0046 31.6561 39.2233 37.4569 32.5273 41.3359C29.843 42.7947 26.9784 43.6398 23.9336 43.8711C23.7594 43.885 23.5875 43.8707 23.418 43.8281C17.9291 38.3825 12.5151 32.9255 7.17578 27.457C9.49231 27.5415 11.8126 27.5701 14.1367 27.543C14.1224 29.0042 14.1367 30.4651 14.1797 31.9258C14.3863 32.6766 14.8589 33.178 15.5977 33.4297C19.0923 33.4727 22.5871 33.487 26.082 33.4727C29.5196 33.487 32.9571 33.4727 36.3945 33.4297C37.183 33.2141 37.6844 32.7128 37.8984 31.9258C37.9414 28.8322 37.9558 25.7385 37.9414 22.6445C37.9414 21.4128 37.9414 20.181 37.9414 18.9492C37.9814 18.4178 37.9241 17.9022 37.7695 17.4023C39.8005 19.3037 41.82 21.2803 43.8281 23.332C43.8708 23.5305 43.8851 23.731 43.8711 23.9336Z" fill="#FE9E01"/>
<path fill-rule="evenodd" clip-rule="evenodd" d="M14.1367 18.9492C18.1185 18.9492 22.1003 18.9492 26.082 18.9492C26.082 20.181 26.082 21.4128 26.082 22.6445C22.1003 22.6445 18.1185 22.6445 14.1367 22.6445C14.1367 21.4128 14.1367 20.181 14.1367 18.9492Z" fill="#5A5A5A"/>
<path fill-rule="evenodd" clip-rule="evenodd" d="M26.082 18.9492C30.0352 18.9492 33.9883 18.9492 37.9414 18.9492C37.9414 20.181 37.9414 21.4128 37.9414 22.6445C33.9883 22.6445 30.0352 22.6445 26.082 22.6445C26.082 21.4128 26.082 20.181 26.082 18.9492Z" fill="#32393F"/>
<path fill-rule="evenodd" clip-rule="evenodd" d="M9.49632 22.0423C11.0708 21.9124 11.8012 22.6286 11.6877 24.1907C11.3435 25.1361 10.6703 25.5516 9.6682 25.4368C8.45245 24.9678 8.06574 24.1227 8.50804 22.9017C8.76448 22.5241 9.09388 22.2376 9.49632 22.0423Z" fill="#FEFEFC"/>
<path fill-rule="evenodd" clip-rule="evenodd" d="M14.1362 22.6445C18.118 22.6445 22.0998 22.6445 26.0816 22.6445C26.0816 26.2539 26.0816 29.8633 26.0816 33.4727C22.5866 33.487 19.0918 33.4727 15.5972 33.4297C14.8585 33.178 14.3858 32.6766 14.1792 31.9258C14.1362 30.4651 14.1219 29.0042 14.1362 27.543C14.1362 25.9102 14.1362 24.2773 14.1362 22.6445Z" fill="#C874F3"/>
<path fill-rule="evenodd" clip-rule="evenodd" d="M26.082 22.6445C30.0352 22.6445 33.9883 22.6445 37.9414 22.6445C37.9558 25.7385 37.9414 28.8322 37.8984 31.9258C37.6844 32.7128 37.183 33.2141 36.3945 33.4297C32.9571 33.4727 29.5196 33.487 26.082 33.4727C26.082 29.8633 26.082 26.2539 26.082 22.6445Z" fill="#A04CD8"/>
<path fill-rule="evenodd" clip-rule="evenodd" d="M16.3711 27.1992C18.8919 27.1992 21.4128 27.1992 23.9336 27.1992C23.9336 28.0586 23.9336 28.918 23.9336 29.7773C21.4128 29.7773 18.8919 29.7773 16.3711 29.7773C16.3711 28.918 16.3711 28.0586 16.3711 27.1992Z" fill="#EAC9FA"/>
<path fill-rule="evenodd" clip-rule="evenodd" d="M16.457 27.2852C18.9206 27.2852 21.3841 27.2852 23.8477 27.2852C23.8477 28.0872 23.8477 28.8894 23.8477 29.6914C21.3841 29.6914 18.9206 29.6914 16.457 29.6914C16.457 28.8894 16.457 28.0872 16.457 27.2852Z" fill="#FEFFFE"/>
<path fill-rule="evenodd" clip-rule="evenodd" d="M28.3161 29.6914C28.2307 28.8762 28.2021 28.0455 28.2302 27.1992C29.0895 27.1992 29.9489 27.1992 30.8083 27.1992C30.8083 28.0586 30.8083 28.918 30.8083 29.7773C29.962 29.8054 29.1313 29.7768 28.3161 29.6914Z" fill="#C6A4E4"/>
<path fill-rule="evenodd" clip-rule="evenodd" d="M28.3164 29.6914C28.3164 28.8894 28.3164 28.0872 28.3164 27.2852C29.1185 27.2852 29.9206 27.2852 30.7227 27.2852C30.7227 28.0872 30.7227 28.8894 30.7227 29.6914C29.9206 29.6914 29.1185 29.6914 28.3164 29.6914Z" fill="#E2EAED"/>
<path fill-rule="evenodd" clip-rule="evenodd" d="M35.707 27.2858C34.905 27.2858 34.1028 27.2858 33.3008 27.2858C33.3008 28.0879 33.3008 28.89 33.3008 29.6921C34.1028 29.6921 34.905 29.6921 35.707 29.6921C34.8918 29.7775 34.0612 29.8061 33.2148 29.778C33.2148 28.9186 33.2148 28.0593 33.2148 27.1999C34.0612 27.1718 34.8918 27.2004 35.707 27.2858Z" fill="#CBB3E6"/>
<path fill-rule="evenodd" clip-rule="evenodd" d="M35.707 27.2852C35.707 28.0872 35.707 28.8894 35.707 29.6914C34.905 29.6914 34.1028 29.6914 33.3008 29.6914C33.3008 28.8894 33.3008 28.0872 33.3008 27.2852C34.1028 27.2852 34.905 27.2852 35.707 27.2852Z" fill="#E2EAED"/>
</g>
<defs>
<clipPath id="clip0_5989_66786">
<rect width="44" height="44" fill="white"/>
</clipPath>
</defs>
</svg>
